<mxfile host="app.diagrams.net" agent="Mozilla/5.0 (Windows NT 10.0; Win64; x64) AppleWebKit/537.36 (KHTML, like Gecko) Chrome/136.0.0.0 Safari/537.36" version="27.0.6">
  <diagram id="FyIgxIa6Er6nHKFQBj50" name="Страница — 1">
    <mxGraphModel dx="1226" dy="692" grid="1" gridSize="10" guides="1" tooltips="1" connect="1" arrows="1" fold="1" page="1" pageScale="1" pageWidth="827" pageHeight="1169" math="0" shadow="0">
      <root>
        <mxCell id="0" />
        <mxCell id="1" parent="0" />
        <mxCell id="CdMIf6v22AsCdn8VvW71-6" value="Block" style="swimlane;fontStyle=1;align=center;verticalAlign=top;childLayout=stackLayout;horizontal=1;startSize=26;horizontalStack=0;resizeParent=1;resizeParentMax=0;resizeLast=0;collapsible=1;marginBottom=0;whiteSpace=wrap;html=1;" vertex="1" parent="1">
          <mxGeometry x="50" y="70" width="220" height="180" as="geometry" />
        </mxCell>
        <mxCell id="CdMIf6v22AsCdn8VvW71-7" value="+ index: int&lt;div&gt;+ timestamp: string&lt;/div&gt;&lt;div&gt;+ transactions: vector&amp;lt;Transaction&amp;gt;&lt;/div&gt;&lt;div&gt;+ previousHash: string&lt;br&gt;&lt;span style=&quot;background-color: transparent; color: light-dark(rgb(0, 0, 0), rgb(255, 255, 255));&quot;&gt;+ hash: string&lt;/span&gt;&lt;/div&gt;&lt;div&gt;+ validatorId: string&lt;/div&gt;" style="text;strokeColor=none;fillColor=none;align=left;verticalAlign=top;spacingLeft=4;spacingRight=4;overflow=hidden;rotatable=0;points=[[0,0.5],[1,0.5]];portConstraint=eastwest;whiteSpace=wrap;html=1;" vertex="1" parent="CdMIf6v22AsCdn8VvW71-6">
          <mxGeometry y="26" width="220" height="94" as="geometry" />
        </mxCell>
        <mxCell id="CdMIf6v22AsCdn8VvW71-8" value="" style="line;strokeWidth=1;fillColor=none;align=left;verticalAlign=middle;spacingTop=-1;spacingLeft=3;spacingRight=3;rotatable=0;labelPosition=right;points=[];portConstraint=eastwest;strokeColor=inherit;" vertex="1" parent="CdMIf6v22AsCdn8VvW71-6">
          <mxGeometry y="120" width="220" height="10" as="geometry" />
        </mxCell>
        <mxCell id="CdMIf6v22AsCdn8VvW71-9" value="+ calculateHash(): string&lt;br&gt;+ toString(): string" style="text;strokeColor=none;fillColor=none;align=left;verticalAlign=top;spacingLeft=4;spacingRight=4;overflow=hidden;rotatable=0;points=[[0,0.5],[1,0.5]];portConstraint=eastwest;whiteSpace=wrap;html=1;" vertex="1" parent="CdMIf6v22AsCdn8VvW71-6">
          <mxGeometry y="130" width="220" height="50" as="geometry" />
        </mxCell>
        <mxCell id="CdMIf6v22AsCdn8VvW71-10" value="Validator" style="swimlane;fontStyle=1;align=center;verticalAlign=top;childLayout=stackLayout;horizontal=1;startSize=26;horizontalStack=0;resizeParent=1;resizeParentMax=0;resizeLast=0;collapsible=1;marginBottom=0;whiteSpace=wrap;html=1;" vertex="1" parent="1">
          <mxGeometry x="303" y="70" width="220" height="150" as="geometry" />
        </mxCell>
        <mxCell id="CdMIf6v22AsCdn8VvW71-11" value="+ id: string&lt;div&gt;+ stake: double&lt;/div&gt;" style="text;strokeColor=none;fillColor=none;align=left;verticalAlign=top;spacingLeft=4;spacingRight=4;overflow=hidden;rotatable=0;points=[[0,0.5],[1,0.5]];portConstraint=eastwest;whiteSpace=wrap;html=1;" vertex="1" parent="CdMIf6v22AsCdn8VvW71-10">
          <mxGeometry y="26" width="220" height="44" as="geometry" />
        </mxCell>
        <mxCell id="CdMIf6v22AsCdn8VvW71-12" value="" style="line;strokeWidth=1;fillColor=none;align=left;verticalAlign=middle;spacingTop=-1;spacingLeft=3;spacingRight=3;rotatable=0;labelPosition=right;points=[];portConstraint=eastwest;strokeColor=inherit;" vertex="1" parent="CdMIf6v22AsCdn8VvW71-10">
          <mxGeometry y="70" width="220" height="10" as="geometry" />
        </mxCell>
        <mxCell id="CdMIf6v22AsCdn8VvW71-13" value="+ getId(): string&lt;br&gt;+ getStake(): string&lt;div&gt;+ addStake(double): void&lt;/div&gt;" style="text;strokeColor=none;fillColor=none;align=left;verticalAlign=top;spacingLeft=4;spacingRight=4;overflow=hidden;rotatable=0;points=[[0,0.5],[1,0.5]];portConstraint=eastwest;whiteSpace=wrap;html=1;" vertex="1" parent="CdMIf6v22AsCdn8VvW71-10">
          <mxGeometry y="80" width="220" height="70" as="geometry" />
        </mxCell>
      </root>
    </mxGraphModel>
  </diagram>
</mxfile>
